<?xml version="1.0" standalone="no"?>
<!DOCTYPE svg PUBLIC "-//W3C//DTD SVG 20010904//EN"
 "http://www.w3.org/TR/2001/REC-SVG-20010904/DTD/svg10.dtd">
<svg version="1.0" xmlns="http://www.w3.org/2000/svg"
 width="246.000000pt" height="376.000000pt" viewBox="0 0 246.000000 376.000000"
 preserveAspectRatio="xMidYMid meet">

<g transform="translate(0.000000,376.000000) scale(0.100000,-0.100000)"
fill="#000000" stroke="none">
<path d="M0 1880 l0 -1880 1230 0 1230 0 0 1880 0 1880 -1230 0 -1230 0 0
-1880z m594 1604 c9 -8 19 -27 22 -42 3 -15 6 -30 7 -34 6 -21 163 -146 219
-173 37 -18 64 -35 61 -39 -10 -10 -95 -7 -89 3 4 5 -9 4 -28 -1 -23 -7 -42
-7 -62 0 -25 9 -26 11 -7 11 12 1 25 6 28 11 4 7 -2 9 -19 4 -57 -14 -163 58
-135 92 18 22 45 16 84 -17 41 -36 45 -29 10 16 -27 37 -66 51 -95 35 -42 -22
-10 -100 58 -145 28 -18 68 -31 133 -41 139 -23 149 -25 149 -35 0 -5 -18 -12
-39 -15 l-39 -6 14 -34 c28 -66 14 -65 -56 6 -97 98 -118 92 -87 -27 13 -50
13 -52 -5 -42 -11 6 -26 25 -33 42 l-13 32 -12 -26 c-11 -25 -48 -55 -57 -46
-2 3 3 19 11 36 9 16 16 51 16 76 0 39 -4 47 -24 55 -49 18 -86 101 -86 191 0
19 -10 40 -26 56 l-27 27 29 23 c34 27 76 30 98 7z m526 -4 c11 -11 20 -31 20
-45 0 -48 195 -206 273 -222 38 -8 15 -23 -36 -23 -27 0 -36 4 -31 12 5 8 2 9
-12 4 -38 -15 -69 -17 -94 -7 -21 8 -22 10 -5 11 11 0 27 5 35 11 11 8 7 9
-17 4 -62 -12 -150 38 -141 82 6 30 43 27 82 -7 46 -41 47 -19 2 26 -37 37
-66 43 -91 18 -33 -33 9 -110 78 -146 23 -11 80 -27 127 -35 125 -21 140 -24
140 -34 0 -5 -18 -12 -40 -15 l-39 -6 14 -29 c8 -15 15 -40 15 -55 0 -26 -1
-26 -29 13 -33 46 -109 113 -128 113 -19 0 -14 -48 11 -128 7 -21 6 -22 -13
-10 -11 7 -26 25 -32 41 l-12 28 -15 -23 c-32 -49 -71 -65 -48 -20 7 15 17 50
21 79 6 50 6 52 -18 58 -52 13 -81 68 -93 175 -5 44 -13 65 -30 81 l-24 23 27
23 c35 28 77 29 103 3z m515 -3 c8 -13 18 -37 21 -55 4 -18 10 -32 14 -32 5 0
40 -29 79 -65 68 -62 153 -115 186 -115 9 0 13 -4 10 -10 -3 -5 -26 -10 -51
-10 -32 0 -43 3 -38 12 5 8 2 9 -12 4 -38 -15 -69 -17 -94 -7 l-25 10 27 0
c15 1 29 5 32 10 4 5 -10 7 -31 5 -47 -6 -102 20 -123 58 -30 54 35 64 86 13
15 -15 24 -19 24 -11 0 19 -67 76 -88 76 -45 0 -55 -52 -21 -107 28 -45 86
-73 184 -89 44 -7 98 -17 120 -22 38 -7 39 -9 18 -20 -12 -7 -33 -12 -48 -12
-25 0 -25 -1 -11 -22 9 -12 16 -34 16 -49 0 -25 -6 -21 -77 50 l-78 76 -3 -42
c-2 -23 1 -58 7 -78 5 -19 6 -35 2 -35 -11 0 -37 31 -45 55 -7 19 -8 18 -22
-7 -12 -24 -42 -48 -58 -48 -3 0 4 19 14 43 11 23 20 58 20 78 0 31 -5 37 -35
52 -44 21 -63 60 -74 148 -7 56 -15 77 -36 99 l-26 27 33 21 c44 29 83 28 103
-1z m-766 -189 c-27 -22 -48 -22 -76 0 -22 17 -22 17 37 17 60 0 60 0 39 -17z
m524 0 c-20 -23 -52 -23 -80 0 -22 17 -22 17 36 17 56 0 59 -1 44 -17z m514 0
c-28 -22 -49 -22 -76 0 -21 17 -21 17 39 17 59 0 59 0 37 -17z m-1302 -164 c0
-23 -5 -30 -24 -32 -20 -3 -23 -1 -16 15 4 10 10 26 12 36 8 27 28 14 28 -19z
m520 0 c0 -23 -5 -30 -24 -32 -20 -3 -23 -1 -16 15 4 10 10 26 12 36 8 27 28
14 28 -19z m510 0 c0 -22 -5 -30 -21 -32 -20 -3 -21 -1 -10 32 13 42 31 42 31
0z m455 -339 l0 -45 -411 0 c-361 0 -410 -2 -405 -15 3 -8 2 -15 -2 -15 -4 0
-16 -13 -25 -30 -20 -33 -13 -38 17 -15 11 8 24 15 29 15 6 0 -7 -11 -27 -25
-41 -28 -106 -35 -106 -11 0 16 -21 26 -56 26 -13 0 -24 5 -24 11 0 8 12 10
36 6 28 -5 35 -3 31 8 -3 7 1 16 9 19 8 3 14 10 14 16 0 7 -135 10 -410 10
l-410 0 0 45 0 45 870 0 870 0 0 -45z m-1159 -114 l-64 -40 -259 0 -258 -1 0
40 0 40 323 0 322 0 -64 -39z m1159 -1 l0 -40 -252 1 -253 0 -45 26 c-25 15
-56 33 -70 40 -21 11 26 13 298 13 l322 0 0 -40z m-732 13 c-10 -2 -26 -2 -35
0 -10 3 -2 5 17 5 19 0 27 -2 18 -5z m-688 -88 c0 -3 -16 -23 -36 -45 l-36
-40 -124 0 -124 0 0 45 0 45 160 0 c88 0 160 -2 160 -5z m42 -40 c2 -25 0 -45
-4 -45 -5 0 -8 13 -8 29 0 16 -3 36 -6 45 -3 9 -2 16 4 16 5 0 12 -20 14 -45z
m520 34 c2 -6 2 -26 0 -45 -4 -28 -8 -34 -29 -34 -13 0 -31 7 -39 15 -9 8 -29
15 -45 15 -16 0 -29 5 -29 11 0 8 13 9 41 5 40 -6 41 -6 35 19 -6 23 -4 25 28
25 19 0 36 -5 38 -11z m514 -67 c-11 -10 -13 3 -7 43 l6 40 3 -39 c2 -21 1
-41 -2 -44z m344 38 l0 -40 -129 0 -130 0 -25 33 c-15 19 -26 37 -26 40 0 4
70 7 155 7 l155 0 0 -40z m-763 -6 c-3 -3 -12 -4 -19 -1 -8 3 -5 6 6 6 11 1
17 -2 13 -5z m-57 -18 c0 -2 -8 -10 -17 -17 -16 -13 -17 -12 -4 4 13 16 21 21
21 13z m-666 -77 c11 -59 15 -57 -118 -58 l-124 -2 -4 46 -3 45 121 0 122 0 6
-31z m118 -21 c2 -20 0 -34 -4 -32 -4 3 -8 24 -7 47 1 47 6 41 11 -15z m508
30 c0 -18 2 -19 18 -7 16 13 16 12 1 -6 -9 -11 -19 -27 -22 -36 -5 -16 -45
-19 -77 -6 -8 3 -24 8 -35 11 -11 3 -1 3 23 1 37 -5 42 -3 42 14 0 23 -11 31
-54 41 -23 5 -12 7 37 7 61 1 67 -1 67 -19z m507 -15 c-3 -10 -5 -4 -5 12 0
17 2 24 5 18 2 -7 2 -21 0 -30z m353 -7 l0 -44 -125 -1 -125 -2 0 46 0 45 125
0 125 0 0 -44z"/>
</g>
</svg>
